<svg width="30" xmlns="http://www.w3.org/2000/svg" height="30" id="screenshot-fe8a7cb3-b41e-801b-8006-f125e72cc0cd" viewBox="3477.5 3379.988 30 30" style="-webkit-print-color-adjust::exact" xmlns:xlink="http://www.w3.org/1999/xlink" fill="none" version="1.1">
  <g id="shape-fe8a7cb3-b41e-801b-8006-f125e72cc0cd" style="fill:#000000" width="16" height="16" rx="0" ry="0">
    <g id="shape-fe8a7cb3-b41e-801b-8006-f125e72fb4c2" style="display:none">
      <g class="fills" id="fills-fe8a7cb3-b41e-801b-8006-f125e72fb4c2">
        <rect rx="0" ry="0" x="3477.5" y="3379.9882905767713" transform="matrix(1.000000, 0.000000, 0.000000, 1.000000, 0.000000, 0.000000)" width="30" height="30" fill="none" style="fill:none">
        </rect>
      </g>
    </g>
    <g id="shape-fe8a7cb3-b41e-801b-8006-f125e7300c89">
      <g class="fills" id="fills-fe8a7cb3-b41e-801b-8006-f125e7300c89">
        <path d="M3499.58984375,3389.22265625C3499.58984375,3389.22265625,3501.10400390625,3387.87060546875,3503.351806640625,3387.8818359375C3503.890625,3387.8818359375,3503.85302734375,3388.306396484375,3503.351806640625,3388.421142578125C3502.85009765625,3388.5361328125,3502.00146484375,3389.065673828125,3501.732177734375,3389.9912109375C3500.6513671875,3389.9912109375,3499.58984375,3389.22265625,3499.58984375,3389.22265625" style="fill:#196ca2">
        </path>
      </g>
    </g>
    <g id="shape-fe8a7cb3-b41e-801b-8006-f125e7300c8a">
      <g class="fills" id="fills-fe8a7cb3-b41e-801b-8006-f125e7300c8a">
        <path d="M3493.07666015625,3389.8974609375L3494.33056640625,3388.971923828125C3494.33056640625,3388.971923828125,3494.92578125,3388.4775390625,3495.865478515625,3388.657958984375C3496.86376953125,3388.85009765625,3504.83984375,3389.937255859375,3504.83984375,3389.937255859375C3504.83984375,3389.937255859375,3505.6416015625,3390.003173828125,3505.81005859375,3390.884521484375C3505.9765625,3391.75146484375,3506.030517578125,3391.981201171875,3506.030517578125,3391.981201171875Z" style="fill:#78a3ad">
        </path>
      </g>
    </g>
    <g id="shape-fe8a7cb3-b41e-801b-8006-f125e7306d9e">
      <g class="fills" id="fills-fe8a7cb3-b41e-801b-8006-f125e7306d9e">
        <path d="M3507.204833984375,3396.888916015625L3506.1005859375,3399.797607421875C3505.77001953125,3400.77978515625,3504.8564453125,3401.494384765625,3503.768798828125,3401.52734375L3503.7666015625,3401.52978515625L3487.0673828125,3401.508544921875C3485.935302734375,3401.407958984375,3484.91796875,3400.9130859375,3484.15185546875,3400.163330078125L3478.125732421875,3394.03662109375C3477.9921875,3393.91943359375,3477.856201171875,3393.753173828125,3477.856201171875,3393.546875C3477.856201171875,3393.228271484375,3478.11376953125,3392.96826171875,3478.435302734375,3392.96826171875C3478.477294921875,3392.96826171875,3506.2861328125,3395.66357421875,3506.34912109375,3395.66796875C3506.8623046875,3395.696044921875,3507.23486328125,3396.06396484375,3507.23486328125,3396.5537109375C3507.23486328125,3396.6708984375,3507.23486328125,3396.806884765625,3507.204833984375,3396.888916015625" fill-rule="evenodd" clip-rule="evenodd" style="fill:#e6e7e8">
        </path>
      </g>
    </g>
    <g id="shape-fe8a7cb3-b41e-801b-8006-f125e7308937">
      <g class="fills" id="fills-fe8a7cb3-b41e-801b-8006-f125e7308937">
        <path d="M3480.2958984375,3393.3896484375C3480.2119140625,3393.3173828125,3480.1298828125,3393.225830078125,3480.06884765625,3393.122802734375C3479.03759765625,3393.0244140625,3478.425537109375,3392.963134765625,3478.4208984375,3392.963134765625C3478.1025390625,3392.963134765625,3477.84228515625,3393.2236328125,3477.84228515625,3393.542236328125C3477.84228515625,3393.74853515625,3477.97802734375,3393.91259765625,3478.111572265625,3394.031982421875L3484.13525390625,3400.15869140625C3484.901611328125,3400.908447265625,3485.918701171875,3401.4033203125,3487.05078125,3401.504150390625L3488.70556640625,3401.50634765625C3488.18408203125,3401.247802734375,3487.706298828125,3400.909423828125,3487.289794921875,3400.5029296875Z" style="fill:#d1d3d4">
        </path>
      </g>
    </g>
    <g id="shape-fe8a7cb3-b41e-801b-8006-f125e730d848">
      <g class="fills" id="fills-fe8a7cb3-b41e-801b-8006-f125e730d848">
        <path d="M3493.07666015625,3389.8974609375L3488.84619140625,3393.01025390625L3500.208740234375,3394.477294921875L3502.48876953125,3394.15380859375L3502.6787109375,3393.04052734375L3502.8056640625,3391.622802734375L3497.56689453125,3390.715576171875Z" fill-rule="evenodd" clip-rule="evenodd" style="fill:#40c0e7">
        </path>
      </g>
    </g>
    <g id="shape-fe8a7cb3-b41e-801b-8006-f125e7312aaf">
      <g class="fills" id="fills-fe8a7cb3-b41e-801b-8006-f125e7312aaf">
        <path d="M3506.92333984375,3395.75L3495.724853515625,3394.62744140625C3487.845458984375,3393.863037109375,3478.45849609375,3392.956298828125,3478.435302734375,3392.956298828125C3478.11669921875,3392.956298828125,3477.856201171875,3393.21630859375,3477.856201171875,3393.535400390625C3477.856201171875,3393.7412109375,3477.9921875,3393.90576171875,3478.125732421875,3394.025146484375L3478.4541015625,3394.35791015625L3507.1318359375,3397.0625L3507.202392578125,3396.875244140625C3507.23486328125,3396.79052734375,3507.378173828125,3396.354736328125,3506.92333984375,3395.75" style="fill:#ed6c30">
        </path>
      </g>
    </g>
    <g id="shape-fe8a7cb3-b41e-801b-8006-f125e7312ab0">
      <g class="fills" id="fills-fe8a7cb3-b41e-801b-8006-f125e7312ab0">
        <path d="M3500.62109375,3393.628662109375C3499.9248046875,3393.68994140625,3500.150146484375,3394.2333984375,3500.150146484375,3394.2333984375L3506.740478515625,3395.28125L3505.9248046875,3391.505615234375L3493.381103515625,3389.6630859375L3492.20703125,3390.532958984375C3492.20703125,3390.532958984375,3501.39697265625,3391.836181640625,3501.701416015625,3391.8828125C3502.00634765625,3391.929443359375,3502.128173828125,3392.2578125,3502.142333984375,3392.414794921875C3502.165771484375,3392.65869140625,3502.24072265625,3393.48828125,3500.62109375,3393.628662109375" style="fill:#196ca2">
        </path>
      </g>
    </g>
    <g id="shape-fe8a7cb3-b41e-801b-8006-f125e7314b31">
      <g class="fills" id="fills-fe8a7cb3-b41e-801b-8006-f125e7314b31">
        <path d="M3498.713134765625,3391.306396484375L3495.87744140625,3393.9921875L3494.28564453125,3393.814208984375L3497.4873046875,3391.154052734375Z" style="fill:#196ca2">
        </path>
      </g>
    </g>
    <g id="shape-fe8a7cb3-b41e-801b-8006-f125e7314b32">
      <g class="fills" id="fills-fe8a7cb3-b41e-801b-8006-f125e7314b32">
        <path d="M3493.23095703125,3392.780517578125C3493.118896484375,3392.780517578125,3493.008544921875,3392.728759765625,3492.935791015625,3392.63037109375C3492.818603515625,3392.46875,3492.853759765625,3392.2412109375,3493.01806640625,3392.121826171875L3495.38037109375,3390.4111328125C3495.543701171875,3390.30078125,3495.7646484375,3390.339599609375,3495.880126953125,3390.49951171875C3495.99560546875,3390.6591796875,3495.962890625,3390.881103515625,3495.806884765625,3391.001708984375L3493.4443359375,3392.712646484375C3493.37890625,3392.757080078125,3493.3037109375,3392.780517578125,3493.23095703125,3392.780517578125" style="fill:#ffffff">
        </path>
      </g>
    </g>
    <g id="shape-fe8a7cb3-b41e-801b-8006-f125e7319692">
      <g class="fills" id="fills-fe8a7cb3-b41e-801b-8006-f125e7319692">
        <path d="M3506.92333984375,3395.75L3487.221923828125,3394.017822265625L3488.921142578125,3392.963134765625L3506.59033203125,3394.59912109375Z" style="fill:#78a3ad">
        </path>
      </g>
    </g>
    <g id="shape-fe8a7cb3-b41e-801b-8006-f125e7319693">
      <g class="fills" id="fills-fe8a7cb3-b41e-801b-8006-f125e7319693">
        <path d="M3505.80078125,3396.94287109375L3504.8115234375,3399.546630859375C3504.471923828125,3400.5546875,3503.593017578125,3401.34716796875,3502.521728515625,3401.52978515625L3503.76416015625,3401.52978515625L3503.7666015625,3401.52734375C3504.851318359375,3401.494384765625,3505.765625,3400.77978515625,3506.098388671875,3399.797607421875L3507.13916015625,3397.057861328125Z" style="fill:#d1d3d4">
        </path>
      </g>
    </g>
    <g id="shape-fe8a7cb3-b41e-801b-8006-f125e731c701">
      <g class="fills" id="fills-fe8a7cb3-b41e-801b-8006-f125e731c701">
        <path d="M3506.47314453125,3402.551513671875L3480.453125,3402.551513671875C3480.148681640625,3402.551513671875,3479.897705078125,3402.300537109375,3479.897705078125,3401.99609375C3479.897705078125,3401.69140625,3480.148681640625,3401.4404296875,3480.453125,3401.4404296875L3506.47314453125,3401.4404296875C3506.778076171875,3401.4404296875,3507.029052734375,3401.69140625,3507.029052734375,3401.99609375C3507.029052734375,3402.300537109375,3506.7802734375,3402.551513671875,3506.47314453125,3402.551513671875" style="fill:#40c0e7">
        </path>
      </g>
    </g>
  </g>
</svg>