<svg width="30" xmlns="http://www.w3.org/2000/svg" height="30" id="screenshot-fe8a7cb3-b41e-801b-8006-f1251b2a37bd" viewBox="2829.5 3379.988 30 30" style="-webkit-print-color-adjust::exact" xmlns:xlink="http://www.w3.org/1999/xlink" fill="none" version="1.1">
  <g id="shape-fe8a7cb3-b41e-801b-8006-f1251b2a37bd" style="fill:#000000" width="16" height="16" rx="0" ry="0">
    <g id="shape-fe8a7cb3-b41e-801b-8006-f1251b2e1d7c" style="display:none">
      <g class="fills" id="fills-fe8a7cb3-b41e-801b-8006-f1251b2e1d7c">
        <rect rx="0" ry="0" x="2829.5" y="3379.9882905767713" transform="matrix(1.000000, 0.000000, 0.000000, 1.000000, 0.000000, 0.000000)" width="30" height="30" fill="none" style="fill:none">
        </rect>
      </g>
    </g>
    <g id="shape-fe8a7cb3-b41e-801b-8006-f1251b2e90de">
      <g class="fills" id="fills-fe8a7cb3-b41e-801b-8006-f1251b2e90de">
        <path d="M2849.843994140625,3391.754150390625L2856.59375,3390.957275390625L2850.03125,3393.34765625" style="fill:#ffce31">
        </path>
      </g>
    </g>
    <g id="shape-fe8a7cb3-b41e-801b-8006-f1251b2f355e">
      <g class="fills" id="fills-fe8a7cb3-b41e-801b-8006-f1251b2f355e">
        <path d="M2850.312744140625,3391.47265625C2850.312744140625,3391.47265625,2847.875,3391.37890625,2845.952880859375,3392.97265625L2845.952880859375,3394.98828125C2845.952880859375,3394.98828125,2848.390625,3394.98828125,2850.312744140625,3393.48828125C2850.547119140625,3393.301025390625,2850.781494140625,3393.01953125,2850.781494140625,3392.50390625C2850.781494140625,3391.94140625,2850.59375,3391.47265625,2850.312744140625,3391.47265625" style="fill:#b2c1c0">
        </path>
      </g>
    </g>
    <g id="shape-fe8a7cb3-b41e-801b-8006-f1251b2f355f">
      <g class="fills" id="fills-fe8a7cb3-b41e-801b-8006-f1251b2f355f">
        <path d="M2833.859375,3391.754150390625L2837.703125,3399.394775390625L2843.843505859375,3397.42578125L2835.781494140625,3391.191650390625Z" style="fill:#42ade2">
        </path>
      </g>
    </g>
    <g id="shape-fe8a7cb3-b41e-801b-8006-f1251b2f453d">
      <g class="fills" id="fills-fe8a7cb3-b41e-801b-8006-f1251b2f453d">
        <path d="M2835.781494140625,3388.238525390625L2835.781494140625,3391.191650390625L2833.859375,3391.754150390625L2834.843994140625,3388.847900390625Z" style="fill:#428bc1">
        </path>
      </g>
    </g>
    <g id="shape-fe8a7cb3-b41e-801b-8006-f1251b2f453e">
      <g class="fills" id="fills-fe8a7cb3-b41e-801b-8006-f1251b2f453e">
        <ellipse cx="2845.953125" cy="3394.097665576772" rx="0.46875" ry="1.171875" transform="matrix(1.000000, 0.000000, 0.000000, 1.000000, 0.000000, 0.000000)" style="fill:#3e4347">
        </ellipse>
      </g>
    </g>
    <g id="shape-fe8a7cb3-b41e-801b-8006-f1251b2fcee9">
      <g class="fills" id="fills-fe8a7cb3-b41e-801b-8006-f1251b2fcee9">
        <path d="M2853.218505859375,3388.238525390625L2850.547119140625,3392.832275390625C2850.547119140625,3392.832275390625,2839.624755859375,3395.879150390625,2835.781494140625,3397.19140625C2831.9375,3398.551025390625,2833.25,3399.863525390625,2830.484130859375,3402.58203125C2827.296875,3405.62890625,2831.75,3405.816650390625,2846.375,3399.957275390625C2847.6875,3399.44140625,2848.34375,3397.285400390625,2850.453125,3395.92578125C2852.703125,3394.472900390625,2854.671875,3393.863525390625,2854.671875,3393.863525390625L2856.125,3387.11328125Z" style="fill:#dae3ea">
        </path>
      </g>
    </g>
    <g id="shape-fe8a7cb3-b41e-801b-8006-f1251b30379b">
      <g class="fills" id="fills-fe8a7cb3-b41e-801b-8006-f1251b30379b">
        <path d="M2853.687255859375,3384.722900390625L2851.765625,3385.332275390625L2853.218505859375,3388.379150390625L2857.53125,3389.410400390625L2859.5,3388.05078125L2856.125,3387.066650390625ZM2839.484375,3401.78515625L2857.578369140625,3405.254150390625L2859.5,3403.89453125L2846.9375,3398.50390625Z" style="fill:#42ade2">
        </path>
      </g>
    </g>
    <g id="shape-fe8a7cb3-b41e-801b-8006-f1251b30379c">
      <g class="fills" id="fills-fe8a7cb3-b41e-801b-8006-f1251b30379c">
        <path d="M2859.5,3400.566650390625L2859.5,3403.89453125L2857.578369140625,3405.254150390625L2858.5625,3401.17578125Z" style="fill:#428bc1">
        </path>
      </g>
    </g>
    <g id="shape-fe8a7cb3-b41e-801b-8006-f1251b307f64">
      <g class="fills" id="fills-fe8a7cb3-b41e-801b-8006-f1251b307f64">
        <path d="M2833.34375,3398.59765625C2832.78125,3399.160400390625,2832.500244140625,3399.81640625,2832.031494140625,3400.61328125C2832.453125,3401.129150390625,2833.109375,3401.41015625,2833.859375,3401.41015625C2835.21875,3401.41015625,2836.296875,3400.37890625,2836.296875,3399.06640625L2834.843994140625,3399.06640625C2834.234130859375,3399.11328125,2833.71875,3398.87890625,2833.34375,3398.59765625" style="fill:#3e4347">
        </path>
      </g>
    </g>
    <g id="shape-fe8a7cb3-b41e-801b-8006-f1251b307f65">
      <g class="fills" id="fills-fe8a7cb3-b41e-801b-8006-f1251b307f65">
        <path d="M2834.375244140625,3403.09765625L2833.906494140625,3403.19140625C2833.625,3400.14453125,2834.421875,3398.551025390625,2834.468505859375,3398.50390625L2834.843994140625,3398.97265625L2834.65625,3398.73828125L2834.843994140625,3398.97265625C2834.796875,3398.97265625,2834.09375,3400.37890625,2834.375244140625,3403.09765625" style="fill:#dae3ea">
        </path>
      </g>
    </g>
    <g id="shape-fe8a7cb3-b41e-801b-8006-f1251b309d34" style="fill:#000000" rx="0" ry="0">
      <g id="shape-fe8a7cb3-b41e-801b-8006-f1251b309d35">
        <g class="fills" id="fills-fe8a7cb3-b41e-801b-8006-f1251b309d35">
          <ellipse cx="2839.671875" cy="3399.1132905767718" rx="0.46875" ry="0.8906250000004547" transform="matrix(1.000000, 0.000000, 0.000000, 1.000000, 0.000000, 0.000000)" style="fill:#3e4347">
          </ellipse>
        </g>
      </g>
      <g id="shape-fe8a7cb3-b41e-801b-8006-f1251b30f9ba">
        <g class="fills" id="fills-fe8a7cb3-b41e-801b-8006-f1251b30f9ba">
          <ellipse cx="2841.59375" cy="3398.5039155767718" rx="0.46875" ry="0.8906249999995453" transform="matrix(1.000000, 0.000000, 0.000000, 1.000000, 0.000000, 0.000000)" style="fill:#3e4347">
          </ellipse>
        </g>
      </g>
      <g id="shape-fe8a7cb3-b41e-801b-8006-f1251b30f9bb">
        <g class="fills" id="fills-fe8a7cb3-b41e-801b-8006-f1251b30f9bb">
          <ellipse cx="2843.515625" cy="3397.8945405767718" rx="0.46875" ry="0.8906250000004547" transform="matrix(1.000000, 0.000000, 0.000000, 1.000000, 0.000000, 0.000000)" style="fill:#3e4347">
          </ellipse>
        </g>
      </g>
    </g>
    <g id="shape-fe8a7cb3-b41e-801b-8006-f1251b30f9bc">
      <g class="fills" id="fills-fe8a7cb3-b41e-801b-8006-f1251b30f9bc">
        <path d="M2853.687255859375,3394.05078125L2859.5,3392.50390625L2853.921630859375,3395.644775390625" style="fill:#ffce31">
        </path>
      </g>
    </g>
    <g id="shape-fe8a7cb3-b41e-801b-8006-f1251b313d5a">
      <g class="fills" id="fills-fe8a7cb3-b41e-801b-8006-f1251b313d5a">
        <path d="M2853.687255859375,3393.81640625C2853.687255859375,3393.81640625,2851.250244140625,3393.67578125,2849.328125,3395.55078125L2849.328125,3397.89453125C2849.328125,3397.89453125,2851.765625,3397.89453125,2853.687255859375,3396.16015625C2853.921630859375,3395.972900390625,2854.156005859375,3395.644775390625,2854.156005859375,3394.98828125C2854.156005859375,3394.332275390625,2853.96875,3393.81640625,2853.687255859375,3393.81640625" style="fill:#b2c1c0">
        </path>
      </g>
    </g>
    <g id="shape-fe8a7cb3-b41e-801b-8006-f1251b313d5b">
      <g class="fills" id="fills-fe8a7cb3-b41e-801b-8006-f1251b313d5b">
        <ellipse cx="2849.328125" cy="3396.7695405767713" rx="0.46875" ry="1.171875" transform="matrix(1.000000, 0.000000, 0.000000, 1.000000, 0.000000, 0.000000)" style="fill:#3e4347">
        </ellipse>
      </g>
    </g>
  </g>
</svg>