<svg width="32.5" xmlns="http://www.w3.org/2000/svg" height="37.5" id="screenshot-fe8a7cb3-b41e-801b-8006-f1271f8f80c8" viewBox="3202.25 3271.238 32.5 37.5" style="-webkit-print-color-adjust::exact" xmlns:xlink="http://www.w3.org/1999/xlink" fill="none" version="1.1">
  <g id="shape-fe8a7cb3-b41e-801b-8006-f1271f8f80c8">
    <g class="fills" id="fills-fe8a7cb3-b41e-801b-8006-f1271f8f80c8">
      <path d="M3206.3125,3287.48828125C3206.3125,3280.757080078125,3211.768798828125,3275.30078125,3218.5,3275.30078125C3225.231201171875,3275.30078125,3230.6875,3280.757080078125,3230.6875,3287.48828125C3230.6875,3292.1484375,3228.752685546875,3294.892822265625,3226.469970703125,3297.025634765625C3225.507568359375,3297.92578125,3224.5576171875,3298.651123046875,3223.545166015625,3299.420654296875L3222.6328125,3300.120849609375C3221.9501953125,3300.6396484375,3221.298583984375,3301.197265625,3220.680419921875,3301.790771484375C3220.072265625,3302.390625,3219.342529296875,3303.227783203125,3218.855224609375,3304.315673828125C3218.803955078125,3304.443359375,3218.721923828125,3304.556640625,3218.617919921875,3304.645751953125L3218.580078125,3304.666015625C3218.580078125,3304.666015625,3218.554931640625,3304.67578125,3218.5,3304.67578125L3218.419921875,3304.668212890625L3218.382080078125,3304.645751953125C3218.278076171875,3304.557373046875,3218.196533203125,3304.445068359375,3218.144775390625,3304.318115234375C3217.697265625,3303.371337890625,3217.078369140625,3302.514892578125,3216.319580078125,3301.79296875C3215.701416015625,3301.199951171875,3215.0498046875,3300.642578125,3214.3671875,3300.123046875C3214.055908203125,3299.881591796875,3213.7509765625,3299.6484375,3213.452392578125,3299.423095703125C3212.4384765625,3298.6728515625,3211.463134765625,3297.8720703125,3210.530029296875,3297.023193359375C3208.249755859375,3294.8955078125,3206.3125,3292.150634765625,3206.3125,3287.48828125M3234.75,3287.48828125C3234.75,3295.988037109375,3229.585205078125,3299.926025390625,3225.9248046875,3302.7158203125C3224.33984375,3303.927978515625,3223.034912109375,3304.920654296875,3222.5625,3305.978271484375C3221.887451171875,3307.48828125,3220.469970703125,3308.73828125,3218.5,3308.73828125C3216.530029296875,3308.73828125,3215.114990234375,3307.48828125,3214.4375,3305.978271484375C3213.962646484375,3304.920654296875,3212.662841796875,3303.927978515625,3211.072509765625,3302.7158203125C3207.414794921875,3299.926025390625,3202.25,3295.985595703125,3202.25,3287.48828125C3202.25,3278.513671875,3209.525390625,3271.23828125,3218.5,3271.23828125C3227.474609375,3271.23828125,3234.75,3278.513671875,3234.75,3287.48828125M3222.25,3287.48828125C3222.25,3289.559326171875,3220.571044921875,3291.23828125,3218.5,3291.23828125C3216.428955078125,3291.23828125,3214.75,3289.559326171875,3214.75,3287.48828125C3214.75,3285.417236328125,3216.428955078125,3283.73828125,3218.5,3283.73828125C3220.571044921875,3283.73828125,3222.25,3285.417236328125,3222.25,3287.48828125M3226,3287.48828125C3226,3291.630859375,3222.641845703125,3294.98828125,3218.5,3294.98828125C3214.358154296875,3294.98828125,3211,3291.630859375,3211,3287.48828125C3211,3283.346435546875,3214.358154296875,3279.98828125,3218.5,3279.98828125C3222.641845703125,3279.98828125,3226,3283.346435546875,3226,3287.48828125" fill-rule="evenodd" clip-rule="evenodd">
      </path>
    </g>
    <g fill-rule="evenodd" clip-rule="evenodd" id="strokes-fe8a7cb3-b41e-801b-8006-f13a1ce4d82e-fe8a7cb3-b41e-801b-8006-f1271f8f80c8" class="strokes">
      <g class="inner-stroke-shape">
        <defs>
          <clipPath id="inner-stroke-render-42632-fe8a7cb3-b41e-801b-8006-f1271f8f80c8-0">
            <use href="#stroke-shape-render-42632-fe8a7cb3-b41e-801b-8006-f1271f8f80c8-0">
            </use>
          </clipPath>
          <path d="M3206.3125,3287.48828125C3206.3125,3280.757080078125,3211.768798828125,3275.30078125,3218.5,3275.30078125C3225.231201171875,3275.30078125,3230.6875,3280.757080078125,3230.6875,3287.48828125C3230.6875,3292.1484375,3228.752685546875,3294.892822265625,3226.469970703125,3297.025634765625C3225.507568359375,3297.92578125,3224.5576171875,3298.651123046875,3223.545166015625,3299.420654296875L3222.6328125,3300.120849609375C3221.9501953125,3300.6396484375,3221.298583984375,3301.197265625,3220.680419921875,3301.790771484375C3220.072265625,3302.390625,3219.342529296875,3303.227783203125,3218.855224609375,3304.315673828125C3218.803955078125,3304.443359375,3218.721923828125,3304.556640625,3218.617919921875,3304.645751953125L3218.580078125,3304.666015625C3218.580078125,3304.666015625,3218.554931640625,3304.67578125,3218.5,3304.67578125L3218.419921875,3304.668212890625L3218.382080078125,3304.645751953125C3218.278076171875,3304.557373046875,3218.196533203125,3304.445068359375,3218.144775390625,3304.318115234375C3217.697265625,3303.371337890625,3217.078369140625,3302.514892578125,3216.319580078125,3301.79296875C3215.701416015625,3301.199951171875,3215.0498046875,3300.642578125,3214.3671875,3300.123046875C3214.055908203125,3299.881591796875,3213.7509765625,3299.6484375,3213.452392578125,3299.423095703125C3212.4384765625,3298.6728515625,3211.463134765625,3297.8720703125,3210.530029296875,3297.023193359375C3208.249755859375,3294.8955078125,3206.3125,3292.150634765625,3206.3125,3287.48828125M3234.75,3287.48828125C3234.75,3295.988037109375,3229.585205078125,3299.926025390625,3225.9248046875,3302.7158203125C3224.33984375,3303.927978515625,3223.034912109375,3304.920654296875,3222.5625,3305.978271484375C3221.887451171875,3307.48828125,3220.469970703125,3308.73828125,3218.5,3308.73828125C3216.530029296875,3308.73828125,3215.114990234375,3307.48828125,3214.4375,3305.978271484375C3213.962646484375,3304.920654296875,3212.662841796875,3303.927978515625,3211.072509765625,3302.7158203125C3207.414794921875,3299.926025390625,3202.25,3295.985595703125,3202.25,3287.48828125C3202.25,3278.513671875,3209.525390625,3271.23828125,3218.5,3271.23828125C3227.474609375,3271.23828125,3234.75,3278.513671875,3234.75,3287.48828125M3222.25,3287.48828125C3222.25,3289.559326171875,3220.571044921875,3291.23828125,3218.5,3291.23828125C3216.428955078125,3291.23828125,3214.75,3289.559326171875,3214.75,3287.48828125C3214.75,3285.417236328125,3216.428955078125,3283.73828125,3218.5,3283.73828125C3220.571044921875,3283.73828125,3222.25,3285.417236328125,3222.25,3287.48828125M3226,3287.48828125C3226,3291.630859375,3222.641845703125,3294.98828125,3218.5,3294.98828125C3214.358154296875,3294.98828125,3211,3291.630859375,3211,3287.48828125C3211,3283.346435546875,3214.358154296875,3279.98828125,3218.5,3279.98828125C3222.641845703125,3279.98828125,3226,3283.346435546875,3226,3287.48828125" style="fill:none;fill-opacity:none;stroke-width:2;stroke:#000000;stroke-opacity:1" id="stroke-shape-render-42632-fe8a7cb3-b41e-801b-8006-f1271f8f80c8-0">
          </path>
        </defs>
        <use href="#stroke-shape-render-42632-fe8a7cb3-b41e-801b-8006-f1271f8f80c8-0" clip-path="url(&#x27;#inner-stroke-render-42632-fe8a7cb3-b41e-801b-8006-f1271f8f80c8-0&#x27;)">
        </use>
      </g>
    </g>
  </g>
</svg>