<svg width="30" xmlns="http://www.w3.org/2000/svg" height="30" id="screenshot-fe8a7cb3-b41e-801b-8006-f125b4c359d3" viewBox="3177.5 3379.988 30 30" style="-webkit-print-color-adjust::exact" xmlns:xlink="http://www.w3.org/1999/xlink" fill="none" version="1.1">
  <g id="shape-fe8a7cb3-b41e-801b-8006-f125b4c359d3" style="fill:#000000" width="18" height="18" rx="0" ry="0">
    <g id="shape-fe8a7cb3-b41e-801b-8006-f125b4c537a3" style="display:none">
      <g class="fills" id="fills-fe8a7cb3-b41e-801b-8006-f125b4c537a3">
        <rect rx="0" ry="0" x="3177.5" y="3379.9882905767713" transform="matrix(1.000000, 0.000000, 0.000000, 1.000000, 0.000000, 0.000000)" width="30" height="30" fill="none" style="fill:none">
        </rect>
      </g>
    </g>
    <g id="shape-fe8a7cb3-b41e-801b-8006-f125b4c5b28a">
      <g class="fills" id="fills-fe8a7cb3-b41e-801b-8006-f125b4c5b28a">
        <path d="M3179.166748046875,3409.98828125L3205.833251953125,3409.98828125L3196.666748046875,3395.821533203125L3188.333251953125,3395.821533203125Z" style="fill:#a7a9ac">
        </path>
      </g>
    </g>
    <g id="shape-fe8a7cb3-b41e-801b-8006-f125b4c5f9bc">
      <g class="fills" id="fills-fe8a7cb3-b41e-801b-8006-f125b4c5f9bc">
        <path d="M3181.666748046875,3409.98828125L3203.333251953125,3409.98828125L3195,3395.821533203125L3190,3395.821533203125Z" style="fill:#58595b">
        </path>
      </g>
    </g>
    <g id="shape-fe8a7cb3-b41e-801b-8006-f125b4c5f9bd">
      <g class="fills" id="fills-fe8a7cb3-b41e-801b-8006-f125b4c5f9bd">
        <path d="M3184.166748046875,3409.98828125L3200.833251953125,3409.98828125L3193.333251953125,3395.821533203125L3191.666748046875,3395.821533203125Z" style="fill:#808285">
        </path>
      </g>
    </g>
    <g id="shape-fe8a7cb3-b41e-801b-8006-f125b4c60bcc">
      <g class="fills" id="fills-fe8a7cb3-b41e-801b-8006-f125b4c60bcc">
        <path d="M3200.833251953125,3409.155029296875C3200.833251953125,3409.615234375,3200.460205078125,3409.98828125,3200,3409.98828125L3185,3409.98828125C3184.539794921875,3409.98828125,3184.166748046875,3409.615234375,3184.166748046875,3409.155029296875C3184.166748046875,3408.69482421875,3184.539794921875,3408.321533203125,3185,3408.321533203125L3200,3408.321533203125C3200.460205078125,3408.321533203125,3200.833251953125,3408.69482421875,3200.833251953125,3409.155029296875M3199.166748046875,3405.821533203125C3199.166748046875,3406.28173828125,3198.79345703125,3406.655029296875,3198.333251953125,3406.655029296875L3186.666748046875,3406.655029296875C3186.20654296875,3406.655029296875,3185.833251953125,3406.28173828125,3185.833251953125,3405.821533203125C3185.833251953125,3405.361328125,3186.20654296875,3404.98828125,3186.666748046875,3404.98828125L3198.333251953125,3404.98828125C3198.79345703125,3404.98828125,3199.166748046875,3405.361328125,3199.166748046875,3405.821533203125" style="fill:#a7a9ac">
        </path>
      </g>
    </g>
    <g id="shape-fe8a7cb3-b41e-801b-8006-f125b4c60bcd">
      <g class="fills" id="fills-fe8a7cb3-b41e-801b-8006-f125b4c60bcd">
        <path d="M3200.0634765625,3401.07177734375L3196.666748046875,3395.821533203125L3188.333251953125,3395.821533203125L3184.9365234375,3401.07177734375C3186.5107421875,3403.1689453125,3188.93505859375,3404.987548828125,3192.5,3404.987548828125C3196.06396484375,3404.987548828125,3198.489990234375,3403.168212890625,3200.0634765625,3401.07177734375" style="fill:#58595b">
        </path>
      </g>
    </g>
    <g id="shape-fe8a7cb3-b41e-801b-8006-f125b4c60bce">
      <g class="fills" id="fills-fe8a7cb3-b41e-801b-8006-f125b4c60bce">
        <path d="M3192.5,3379.98828125C3185,3379.98828125,3182.5,3382.48828125,3182.5,3387.48828125L3182.5,3394.155029296875C3182.5,3395.82080078125,3185,3403.321533203125,3192.5,3403.321533203125C3200,3403.321533203125,3202.5,3395.82080078125,3202.5,3394.155029296875L3202.5,3387.48828125C3202.5,3382.48828125,3200,3379.98828125,3192.5,3379.98828125" style="fill:#a7a9ac">
        </path>
      </g>
    </g>
    <g id="shape-fe8a7cb3-b41e-801b-8006-f125b4c67d18">
      <g class="fills" id="fills-fe8a7cb3-b41e-801b-8006-f125b4c67d18">
        <path d="M3184.166748046875,3389.155029296875C3184.166748046875,3381.655029296875,3187.8974609375,3380.821533203125,3192.5,3380.821533203125C3197.1025390625,3380.821533203125,3200.833251953125,3381.655029296875,3200.833251953125,3389.155029296875C3200.833251953125,3394.155029296875,3197.1025390625,3398.321533203125,3192.5,3398.321533203125C3187.8974609375,3398.32080078125,3184.166748046875,3394.155029296875,3184.166748046875,3389.155029296875" style="fill:#e6e7e8">
        </path>
      </g>
    </g>
    <g id="shape-fe8a7cb3-b41e-801b-8006-f125b4c67d19">
      <g class="fills" id="fills-fe8a7cb3-b41e-801b-8006-f125b4c67d19">
        <path d="M3192.5,3398.32080078125C3193.868408203125,3398.32080078125,3195.154296875,3397.946044921875,3196.29443359375,3397.29736328125C3195.6416015625,3396.42919921875,3194.19140625,3395.821533203125,3192.5,3395.821533203125C3190.80859375,3395.821533203125,3189.359130859375,3396.42919921875,3188.706787109375,3397.29833984375C3189.844970703125,3397.946044921875,3191.13232421875,3398.32080078125,3192.5,3398.32080078125" style="fill:#ffac33">
        </path>
      </g>
    </g>
    <g id="shape-fe8a7cb3-b41e-801b-8006-f125b4c69cb1">
      <g class="fills" id="fills-fe8a7cb3-b41e-801b-8006-f125b4c69cb1">
        <path d="M3193.333251953125,3384.152587890625L3193.333251953125,3388.289794921875C3196.23974609375,3388.0966796875,3198.333251953125,3386.939453125,3198.333251953125,3386.237548828125L3198.333251953125,3384.84912109375C3198.333251953125,3384.18994140625,3195.2568359375,3384.15087890625,3193.333251953125,3384.152587890625M3191.666748046875,3384.152587890625C3189.7431640625,3384.15087890625,3186.666748046875,3384.189208984375,3186.666748046875,3384.84912109375L3186.666748046875,3386.23828125C3186.666748046875,3386.940185546875,3188.76025390625,3388.097412109375,3191.666748046875,3388.290771484375Z" style="fill:#55acee">
        </path>
      </g>
    </g>
    <g id="shape-fe8a7cb3-b41e-801b-8006-f125b4c69cb2">
      <g class="fills" id="fills-fe8a7cb3-b41e-801b-8006-f125b4c69cb2">
        <path d="M3182.5,3388.321533203125C3182.5,3388.321533203125,3182.5,3390.821533203125,3185.833251953125,3395.821533203125C3185.833251953125,3395.821533203125,3182.5,3394.155029296875,3182.5,3390.821533203125ZM3202.5,3388.321533203125C3202.5,3388.321533203125,3202.5,3390.821533203125,3199.166748046875,3395.821533203125C3199.166748046875,3395.821533203125,3202.5,3394.155029296875,3202.5,3390.821533203125Z" style="fill:#226699">
        </path>
      </g>
    </g>
  </g>
</svg>